<?xml version="1.0" encoding="utf-8"?>
<svg width="800px" height="800px" viewBox="0 0 24 24" fill="none" xmlns="http://www.w3.org/2000/svg">
<path d="M19 12H5M19 12C19.5304 12 20.0391 12.2107 20.4142 12.5858C20.7893 12.9609 21 13.4696 21 14V18C21 18.5304 20.7893 19.0391 20.4142 19.4142C20.0391 19.7893 19.5304 20 19 20H5C4.46957 20 3.96086 19.7893 3.58579 19.4142C3.21071 19.0391 3 18.5304 3 18V14C3 13.4696 3.21071 12.9609 3.58579 12.5858C3.96086 12.2107 4.46957 12 5 12M19 12V10C19 9.46957 18.7893 8.96086 18.4142 8.58579C18.0391 8.21071 17.5304 8 17 8H7C6.46957 8 5.96086 8.21071 5.58579 8.58579C5.21071 8.96086 5 9.46957 5 10V12M12 16C12.2652 16 12.5196 15.8946 12.7071 15.7071C12.8946 15.5196 13 15.2652 13 15C13 14.7348 12.8946 14.4804 12.7071 14.2929C12.5196 14.1054 12.2652 14 12 14C11.7348 14 11.4804 14.1054 11.2929 14.2929C11.1054 14.4804 11 14.7348 11 15C11 15.2652 11.1054 15.5196 11.2929 15.7071C11.4804 15.8946 11.7348 16 12 16Z" stroke="#0C4160" stroke-width="2" stroke-linecap="round" stroke-linejoin="round"/>
</svg>