<?xml version="1.0" encoding="utf-8"?>
<svg width="800px" height="800px" viewBox="0 0 24 24" fill="none" xmlns="http://www.w3.org/2000/svg">
<path d="M19 21V5C19 3.89543 18.1046 3 17 3H7C5.89543 3 5 3.89543 5 5V21" stroke="#0C4160" stroke-width="2" stroke-linecap="round" stroke-linejoin="round"/>
<path d="M19 21H21V11.5C21 10.3954 20.1046 9.5 19 9.5H16C14.8954 9.5 14 10.3954 14 11.5V21H19Z" stroke="#0C4160" stroke-width="2" stroke-linecap="round" stroke-linejoin="round"/>
<path d="M5 21H14" stroke="#0C4160" stroke-width="2" stroke-linecap="round" stroke-linejoin="round"/>
<path d="M5 21H3V11.5C3 10.3954 3.89543 9.5 5 9.5H8C9.10457 9.5 10 10.3954 10 11.5V21" stroke="#0C4160" stroke-width="2" stroke-linecap="round" stroke-linejoin="round"/>
<path d="M9 6.5H15" stroke="#0C4160" stroke-width="2" stroke-linecap="round" stroke-linejoin="round"/>
<path d="M9 10H10" stroke="#0C4160" stroke-width="2" stroke-linecap="round" stroke-linejoin="round"/>
<path d="M10 17H14" stroke="#0C4160" stroke-width="2" stroke-linecap="round" stroke-linejoin="round"/>
</svg>