<?xml version="1.0" encoding="utf-8"?>
<svg width="800px" height="800px" viewBox="0 0 24 24" fill="none" xmlns="http://www.w3.org/2000/svg">
<path d="M4 4C4 2.89543 4.89543 2 6 2H18C19.1046 2 20 2.89543 20 4V20C20 21.1046 19.1046 22 18 22H6C4.89543 22 4 21.1046 4 20V4Z" stroke="#0C4160" stroke-width="2" stroke-linecap="round" stroke-linejoin="round"/>
<path d="M8 10C9.10457 10 10 9.10457 10 8C10 6.89543 9.10457 6 8 6" stroke="#0C4160" stroke-width="2" stroke-linecap="round" stroke-linejoin="round"/>
<path d="M12 16C9.79086 16 8 14.2091 8 12L8 16" stroke="#0C4160" stroke-width="2" stroke-linecap="round" stroke-linejoin="round"/>
<path d="M8 8H8.01" stroke="#0C4160" stroke-width="2" stroke-linecap="round" stroke-linejoin="round"/>
<path d="M12 8H16" stroke="#0C4160" stroke-width="2" stroke-linecap="round" stroke-linejoin="round"/>
<path d="M12 12H16" stroke="#0C4160" stroke-width="2" stroke-linecap="round" stroke-linejoin="round"/>
<path d="M12 16H16" stroke="#0C4160" stroke-width="2" stroke-linecap="round" stroke-linejoin="round"/>
</svg>