<?xml version="1.0" encoding="utf-8"?>
<svg width="800px" height="800px" viewBox="0 0 24 24" fill="none" xmlns="http://www.w3.org/2000/svg">
<path d="M17.6 6.31999C16.8669 5.58141 15.9943 4.99596 15.033 4.59767C14.0716 4.19938 13.0406 3.99522 12 3.99999C10.6089 4.00135 9.24248 4.36819 8.03771 5.06377C6.83294 5.75935 5.83208 6.75926 5.13534 7.96335C4.43859 9.16745 4.07046 10.5335 4.06776 11.9246C4.06507 13.3158 4.42793 14.6832 5.12 15.89L4 20L8.2 18.9C9.35975 19.5452 10.6629 19.8891 11.99 19.9C14.0997 19.9 16.124 19.0521 17.6242 17.5518C19.1245 16.0516 19.9724 14.0273 19.9724 11.9176C19.9724 9.80781 19.1245 7.78354 17.6242 6.28332L17.6 6.31999ZM12 18.53C10.8177 18.5308 9.65701 18.213 8.64 17.61L8.4 17.46L5.91 18.12L6.57 15.69L6.41 15.44C5.55925 14.0667 5.24174 12.429 5.51762 10.8372C5.7935 9.24545 6.64361 7.81015 7.9069 6.80322C9.1702 5.79629 10.7589 5.28765 12.3721 5.37368C13.9853 5.4597 15.511 6.13441 16.66 7.26999C17.329 7.93569 17.8548 8.73022 18.2084 9.60604C18.5619 10.4819 18.7355 11.4209 18.7199 12.3669C18.7043 13.313 18.4999 14.2456 18.1202 15.109C17.7405 15.9725 17.1941 16.7502 16.5 17.395C15.1382 18.7605 13.2572 19.524 11.3 19.5L12 18.53ZM15.34 13.84C15.18 13.76 14.24 13.3 14.1 13.24C13.96 13.18 13.85 13.16 13.75 13.32C13.65 13.48 13.3 13.9 13.2 14.01C13.1 14.12 13.01 14.13 12.85 14.04C12.3973 13.8539 11.9739 13.6058 11.59 13.31C11.2162 13.0142 10.8891 12.6569 10.62 12.25C10.53 12.09 10.61 12.01 10.69 11.93C10.76 11.86 10.85 11.75 10.93 11.65C11.01 11.55 11.03 11.47 11.09 11.37C11.15 11.27 11.13 11.17 11.09 11.09C11.05 11.01 10.62 10.07 10.49 9.76C10.36 9.46 10.23 9.5 10.13 9.5C10.0528 9.495 9.97583 9.495 9.9 9.5C9.8366 9.5155 9.77583 9.54267 9.72 9.58C9.66113 9.62366 9.60818 9.67706 9.56303 9.73838C9.51787 9.7997 9.4811 9.86817 9.45398 9.94142C9.42686 10.0147 9.40977 10.0918 9.40337 10.1702C9.39697 10.2486 9.40133 10.3276 9.41627 10.4041C9.52888 10.8676 9.72113 11.3085 9.98627 11.7069C10.0778 11.8472 10.1793 11.9829 10.29 12.11C10.5082 12.387 10.7558 12.6344 11.0266 12.8477C11.2975 13.0609 11.5898 13.2386 11.9 13.37C12.2965 13.5333 12.7191 13.6371 13.15 13.68C13.2428 13.6792 13.3347 13.6641 13.4221 13.6351C13.5095 13.6061 13.5911 13.5637 13.6634 13.5098C13.7357 13.4559 13.7976 13.3911 13.8462 13.3186C13.8948 13.2461 13.9292 13.1669 13.9479 13.0838C13.9665 13.0006 13.969 12.9149 13.9552 12.8308C13.92 12.51 13.57 12.17 13.34 13.84Z" fill="white"/>
</svg>